M48
; DRILL file KiCad 10.0.3 date 2026-09-13T14:30:54
; FORMAT={-:-/ absolute / metric / decimal}
; #@! TF.CreationDate,2026-09-13T14:30:54-05:00
; #@! TF.GenerationSoftware,Kicad,Pcbnew,10.0.3
; #@! TF.FileFunction,Plated,1,2,PTH
FMAT,2
METRIC
; #@! TA.AperFunction,Plated,PTH,ComponentDrill
T1C0.200
; #@! TA.AperFunction,Plated,PTH,ViaDrill
T2C0.300
; #@! TA.AperFunction,Plated,PTH,ViaDrill
T3C0.350
; #@! TA.AperFunction,Plated,PTH,ComponentDrill
T4C1.000
%
G90
G05
T1
X48.1Y-31.76
X48.1Y-33.16
X48.8Y-31.06
X48.8Y-32.46
X48.8Y-33.86
X49.5Y-31.76
X49.5Y-33.16
X50.2Y-31.06
X50.2Y-32.46
X50.2Y-33.86
X50.9Y-31.76
X50.9Y-33.16
T2
X23.1Y-29.0
X23.1Y-35.0
X23.25Y-32.0
X25.75Y-27.25
X42.25Y-24.74
X45.285Y-42.5
X48.1Y-31.06
X56.75Y-28.5
X56.75Y-57.5
X57.5Y-29.75
X57.5Y-55.0
X58.25Y-35.0
X58.5Y-44.75
X59.0Y-27.25
X59.75Y-24.74
X59.75Y-26.0
X59.75Y-31.0
X61.0Y-39.5
X61.75Y-34.5
X61.75Y-37.75
X75.5Y-31.0
X77.05Y-22.365
X77.087Y-28.0
X78.912Y-28.0
X78.95Y-22.365
X79.0Y-23.8
X80.0Y-20.5
X80.5Y-28.0
X81.5Y-41.0
X82.0Y-22.365
X84.5Y-41.0
X87.75Y-35.75
X97.7Y-15.0
X101.8Y-13.3
X103.0Y-18.5
T3
X20.0Y-26.0
X23.0Y-26.0
X24.25Y-27.0
X48.0Y-32.5
X49.5Y-31.0
X49.5Y-32.5
X51.0Y-31.0
X51.0Y-32.5
X77.75Y-22.25
X79.5Y-46.0
X83.5Y-50.0
T4
X20.0Y-22.5
X20.0Y-25.04
X65.0Y-50.0
X65.0Y-52.54
X65.0Y-55.08
X65.0Y-57.62
X78.02Y-32.0
X78.02Y-34.54
X78.02Y-37.08
X78.02Y-39.62
X78.02Y-42.16
X78.02Y-44.7
M30
