%TF.GenerationSoftware,KiCad,Pcbnew,10.0.3*%
%TF.CreationDate,2026-09-13T14:31:01-05:00*%
%TF.ProjectId,board,626f6172-642e-46b6-9963-61645f706362,rev?*%
%TF.SameCoordinates,Original*%
%TF.FileFunction,Copper,L1,Top*%
%TF.FilePolarity,Positive*%
%FSLAX46Y46*%
G04 Gerber Fmt 4.6, Leading zero omitted, Abs format (unit mm)*
G04 Created by KiCad (PCBNEW 10.0.3) date 2026-09-13 14:31:01*
%MOMM*%
%LPD*%
G01*
G04 APERTURE LIST*
G04 Aperture macros list*
%AMRoundRect*
0 Rectangle with rounded corners*
0 $1 Rounding radius*
0 $2 $3 $4 $5 $6 $7 $8 $9 X,Y pos of 4 corners*
0 Add a 4 corners polygon primitive as box body*
4,1,4,$2,$3,$4,$5,$6,$7,$8,$9,$2,$3,0*
0 Add four circle primitives for the rounded corners*
1,1,$1+$1,$2,$3*
1,1,$1+$1,$4,$5*
1,1,$1+$1,$6,$7*
1,1,$1+$1,$8,$9*
0 Add four rect primitives between the rounded corners*
20,1,$1+$1,$2,$3,$4,$5,0*
20,1,$1+$1,$4,$5,$6,$7,0*
20,1,$1+$1,$6,$7,$8,$9,0*
20,1,$1+$1,$8,$9,$2,$3,0*%
G04 Aperture macros list end*
%TA.AperFunction,SMDPad,CuDef*%
%ADD10R,1.500000X0.900000*%
%TD*%
%TA.AperFunction,SMDPad,CuDef*%
%ADD11R,0.900000X1.500000*%
%TD*%
%TA.AperFunction,SMDPad,CuDef*%
%ADD12R,0.900000X0.900000*%
%TD*%
%TA.AperFunction,ComponentPad*%
%ADD13C,0.600000*%
%TD*%
%TA.AperFunction,ComponentPad*%
%ADD14R,1.700000X1.700000*%
%TD*%
%TA.AperFunction,ComponentPad*%
%ADD15C,1.700000*%
%TD*%
%TA.AperFunction,SMDPad,CuDef*%
%ADD16RoundRect,0.250000X-0.250000X-0.475000X0.250000X-0.475000X0.250000X0.475000X-0.250000X0.475000X0*%
%TD*%
%TA.AperFunction,SMDPad,CuDef*%
%ADD17R,0.900000X1.700000*%
%TD*%
%TA.AperFunction,SMDPad,CuDef*%
%ADD18RoundRect,0.256250X0.256250X0.443750X-0.256250X0.443750X-0.256250X-0.443750X0.256250X-0.443750X0*%
%TD*%
%TA.AperFunction,SMDPad,CuDef*%
%ADD19R,0.350000X0.500000*%
%TD*%
%TA.AperFunction,SMDPad,CuDef*%
%ADD20RoundRect,0.250000X-0.475000X0.250000X-0.475000X-0.250000X0.475000X-0.250000X0.475000X0.250000X0*%
%TD*%
%TA.AperFunction,SMDPad,CuDef*%
%ADD21RoundRect,0.250000X0.475000X-0.250000X0.475000X0.250000X-0.475000X0.250000X-0.475000X-0.250000X0*%
%TD*%
%TA.AperFunction,SMDPad,CuDef*%
%ADD22RoundRect,0.256250X-0.256250X-0.443750X0.256250X-0.443750X0.256250X0.443750X-0.256250X0.443750X0*%
%TD*%
%TA.AperFunction,SMDPad,CuDef*%
%ADD23RoundRect,0.250000X0.250000X0.475000X-0.250000X0.475000X-0.250000X-0.475000X0.250000X-0.475000X0*%
%TD*%
%TA.AperFunction,ViaPad*%
%ADD24C,0.600000*%
%TD*%
%TA.AperFunction,ViaPad*%
%ADD25C,0.700000*%
%TD*%
%TA.AperFunction,Conductor*%
%ADD26C,0.400000*%
%TD*%
%TA.AperFunction,Conductor*%
%ADD27C,0.500000*%
%TD*%
%TA.AperFunction,Conductor*%
%ADD28C,0.300000*%
%TD*%
%TA.AperFunction,Conductor*%
%ADD29C,0.250000*%
%TD*%
%TA.AperFunction,Conductor*%
%ADD30C,0.200000*%
%TD*%
G04 APERTURE END LIST*
D10*
%TO.P,U1,1*%
%TO.N,/GND*%
X42250000Y-24740000D03*
%TO.P,U1,2*%
%TO.N,/VCC*%
X42250000Y-26010000D03*
%TO.P,U1,3*%
%TO.N,/controller_enable*%
X42250000Y-27280000D03*
%TO.P,U1,4*%
%TO.N,N/C*%
X42250000Y-28550000D03*
%TO.P,U1,5*%
X42250000Y-29820000D03*
%TO.P,U1,6*%
X42250000Y-31090000D03*
%TO.P,U1,7*%
X42250000Y-32360000D03*
%TO.P,U1,8*%
X42250000Y-33630000D03*
%TO.P,U1,9*%
X42250000Y-34900000D03*
%TO.P,U1,10*%
X42250000Y-36170000D03*
%TO.P,U1,11*%
X42250000Y-37440000D03*
%TO.P,U1,12*%
X42250000Y-38710000D03*
%TO.P,U1,13*%
X42250000Y-39980000D03*
%TO.P,U1,14*%
X42250000Y-41250000D03*
D11*
%TO.P,U1,15*%
%TO.N,/GND*%
X45285000Y-42500000D03*
%TO.P,U1,16*%
%TO.N,N/C*%
X46555000Y-42500000D03*
%TO.P,U1,17*%
X47825000Y-42500000D03*
%TO.P,U1,18*%
X49095000Y-42500000D03*
%TO.P,U1,19*%
X50365000Y-42500000D03*
%TO.P,U1,20*%
X51635000Y-42500000D03*
%TO.P,U1,21*%
X52905000Y-42500000D03*
%TO.P,U1,22*%
X54175000Y-42500000D03*
%TO.P,U1,23*%
X55445000Y-42500000D03*
%TO.P,U1,24*%
X56715000Y-42500000D03*
D10*
%TO.P,U1,25*%
%TO.N,/controller_boot*%
X59750000Y-41250000D03*
%TO.P,U1,26*%
%TO.N,N/C*%
X59750000Y-39980000D03*
%TO.P,U1,27*%
X59750000Y-38710000D03*
%TO.P,U1,28*%
%TO.N,/GPIO*%
X59750000Y-37440000D03*
%TO.P,U1,29*%
%TO.N,N/C*%
X59750000Y-36170000D03*
%TO.P,U1,30*%
%TO.N,/SCK*%
X59750000Y-34900000D03*
%TO.P,U1,31*%
%TO.N,/MISO*%
X59750000Y-33630000D03*
%TO.P,U1,32*%
%TO.N,N/C*%
X59750000Y-32360000D03*
%TO.P,U1,33*%
%TO.N,/SDA*%
X59750000Y-31090000D03*
%TO.P,U1,34*%
%TO.N,/controller_uart_rx*%
X59750000Y-29820000D03*
%TO.P,U1,35*%
%TO.N,/controller_uart_tx*%
X59750000Y-28550000D03*
%TO.P,U1,36*%
%TO.N,/SCL*%
X59750000Y-27280000D03*
%TO.P,U1,37*%
%TO.N,/MOSI*%
X59750000Y-26010000D03*
%TO.P,U1,38*%
%TO.N,/GND*%
X59750000Y-24740000D03*
D12*
%TO.P,U1,39*%
X48100000Y-31060000D03*
D13*
X48100000Y-31760000D03*
D12*
X48100000Y-32460000D03*
D13*
X48100000Y-33160000D03*
D12*
X48100000Y-33860000D03*
D13*
X48800000Y-31060000D03*
X48800000Y-32460000D03*
X48800000Y-33860000D03*
D12*
X49500000Y-31060000D03*
D13*
X49500000Y-31760000D03*
D12*
X49500000Y-32460000D03*
D13*
X49500000Y-33160000D03*
D12*
X49500000Y-33860000D03*
D13*
X50200000Y-31060000D03*
X50200000Y-32460000D03*
X50200000Y-33860000D03*
D12*
X50900000Y-31060000D03*
D13*
X50900000Y-31760000D03*
D12*
X50900000Y-32460000D03*
D13*
X50900000Y-33160000D03*
D12*
X50900000Y-33860000D03*
%TD*%
D14*
%TO.P,J1,1*%
%TO.N,/VCC*%
X20000000Y-22500000D03*
D15*
%TO.P,J1,2*%
%TO.N,/GND*%
X20000000Y-25040000D03*
%TD*%
D16*
%TO.P,C5,1*%
%TO.N,/VCC*%
X84550000Y-28000000D03*
%TO.P,C5,2*%
%TO.N,/GND*%
X86450000Y-28000000D03*
%TD*%
%TO.P,C4,1*%
%TO.N,/VCC*%
X77050000Y-22365000D03*
%TO.P,C4,2*%
%TO.N,/GND*%
X78950000Y-22365000D03*
%TD*%
D17*
%TO.P,SW1,1*%
%TO.N,/controller_enable*%
X17250000Y-32000000D03*
%TO.P,SW1,2*%
%TO.N,/GND*%
X20650000Y-32000000D03*
%TD*%
D18*
%TO.P,R1,1*%
%TO.N,/VCC*%
X24982500Y-32000000D03*
%TO.P,R1,2*%
%TO.N,/controller_enable*%
X23157500Y-32000000D03*
%TD*%
D19*
%TO.P,U2,1*%
%TO.N,/GND*%
X85025000Y-22200000D03*
%TO.P,U2,2*%
%TO.N,/VCC*%
X85675000Y-22200000D03*
%TO.P,U2,3*%
%TO.N,/SDA*%
X86325000Y-22200000D03*
%TO.P,U2,4*%
%TO.N,/SCL*%
X86975000Y-22200000D03*
%TO.P,U2,5*%
%TO.N,/GND*%
X86975000Y-23800000D03*
%TO.P,U2,6*%
%TO.N,/VCC*%
X86325000Y-23800000D03*
%TO.P,U2,7*%
%TO.N,/GND*%
X85675000Y-23800000D03*
%TO.P,U2,8*%
%TO.N,/VCC*%
X85025000Y-23800000D03*
%TD*%
D18*
%TO.P,R2,1*%
%TO.N,/VCC*%
X83382500Y-41000000D03*
%TO.P,R2,2*%
%TO.N,/controller_boot*%
X81557500Y-41000000D03*
%TD*%
D20*
%TO.P,C6,1*%
%TO.N,/VCC*%
X81500000Y-23450000D03*
%TO.P,C6,2*%
%TO.N,/GND*%
X81500000Y-25350000D03*
%TD*%
D21*
%TO.P,C1,1*%
%TO.N,/VCC*%
X39500000Y-26400000D03*
%TO.P,C1,2*%
%TO.N,/GND*%
X39500000Y-24500000D03*
%TD*%
D22*
%TO.P,R3,1*%
%TO.N,/VCC*%
X77087500Y-19000000D03*
%TO.P,R3,2*%
%TO.N,/SDA*%
X78912500Y-19000000D03*
%TD*%
D14*
%TO.P,J3,1*%
%TO.N,/MOSI*%
X78020000Y-32000000D03*
D15*
%TO.P,J3,2*%
%TO.N,/SCL*%
X78020000Y-34540000D03*
%TO.P,J3,3*%
%TO.N,/SDA*%
X78020000Y-37080000D03*
%TO.P,J3,4*%
%TO.N,/MISO*%
X78020000Y-39620000D03*
%TO.P,J3,5*%
%TO.N,/SCK*%
X78020000Y-42160000D03*
%TO.P,J3,6*%
%TO.N,/GPIO*%
X78020000Y-44700000D03*
%TD*%
D23*
%TO.P,C3,1*%
%TO.N,/controller_enable*%
X25000000Y-35000000D03*
%TO.P,C3,2*%
%TO.N,/GND*%
X23100000Y-35000000D03*
%TD*%
D21*
%TO.P,C2,1*%
%TO.N,/VCC*%
X36500000Y-26400000D03*
%TO.P,C2,2*%
%TO.N,/GND*%
X36500000Y-24500000D03*
%TD*%
D17*
%TO.P,SW2,1*%
%TO.N,/controller_boot*%
X85850000Y-41000000D03*
%TO.P,SW2,2*%
%TO.N,/GND*%
X89250000Y-41000000D03*
%TD*%
D14*
%TO.P,J2,1*%
%TO.N,/VCC*%
X65000000Y-50000000D03*
D15*
%TO.P,J2,2*%
%TO.N,/GND*%
X65000000Y-52540000D03*
%TO.P,J2,3*%
%TO.N,/controller_uart_rx*%
X65000000Y-55080000D03*
%TO.P,J2,4*%
%TO.N,/controller_uart_tx*%
X65000000Y-57620000D03*
%TD*%
D22*
%TO.P,R4,1*%
%TO.N,/VCC*%
X77087500Y-28000000D03*
%TO.P,R4,2*%
%TO.N,/SCL*%
X78912500Y-28000000D03*
%TD*%
D24*
%TO.N,/GND*%
X23100000Y-29000000D03*
D25*
X51000000Y-32500000D03*
D24*
X59750000Y-24740000D03*
X78950000Y-22365000D03*
X42250000Y-24740000D03*
D25*
X23000000Y-26000000D03*
X49500000Y-32500000D03*
X51000000Y-31000000D03*
D24*
X48100000Y-31060000D03*
D25*
X48000000Y-32500000D03*
X49500000Y-31000000D03*
D24*
X45285000Y-42500000D03*
D25*
X20000000Y-26000000D03*
D24*
X23100000Y-35000000D03*
X83050000Y-22365000D03*
%TO.N,/VCC*%
X81500000Y-23200000D03*
X77087500Y-28000000D03*
D25*
X24250000Y-27000000D03*
D24*
X77050000Y-22365000D03*
D25*
X79500000Y-46000000D03*
D24*
X84800000Y-26500000D03*
X82800000Y-26500000D03*
X87000000Y-26500000D03*
D25*
X77750000Y-22250000D03*
X83500000Y-50000000D03*
D24*
%TO.N,/controller_enable*%
X25750000Y-27250000D03*
X23250000Y-32000000D03*
%TO.N,/controller_boot*%
X81500000Y-41000000D03*
X84500000Y-41000000D03*
%TO.N,/GPIO*%
X58500000Y-44750000D03*
%TO.N,/SCK*%
X58250000Y-35000000D03*
%TO.N,/MISO*%
X61000000Y-39500000D03*
%TO.N,/SDA*%
X88000000Y-18000000D03*
X88000000Y-20500000D03*
X59750000Y-31000000D03*
X78912500Y-19000000D03*
X75500000Y-31000000D03*
%TO.N,/controller_uart_rx*%
X57500000Y-55000000D03*
X57500000Y-29750000D03*
%TO.N,/controller_uart_tx*%
X56750000Y-28500000D03*
X56750000Y-57500000D03*
%TO.N,/SCL*%
X87800000Y-22200000D03*
X78912500Y-28000000D03*
X87750000Y-28500000D03*
X87750000Y-35750000D03*
X61750000Y-37750000D03*
X61750000Y-34500000D03*
X59000000Y-27250000D03*
%TO.N,/MOSI*%
X59750000Y-26000000D03*
%TD*%
%TO.N,/GND*%
D26*
X23100000Y-26000000D02*
X23000000Y-25750000D01*
X85000000Y-23000000D02*
X85750000Y-23000000D01*
X87000000Y-23000000D02*
X85750000Y-23000000D01*
D27*
X23100000Y-26000000D02*
X23100000Y-29000000D01*
D26*
X49500000Y-32460000D02*
X49250000Y-32500000D01*
X49500000Y-32500000D02*
X49500000Y-32460000D01*
X48100000Y-32460000D02*
X48000000Y-32250000D01*
X85750000Y-23000000D02*
X85750000Y-23500000D01*
X85750000Y-24000000D02*
X85750000Y-25000000D01*
X83250000Y-22250000D02*
X85000000Y-22250000D01*
X50750000Y-32500000D02*
X50250000Y-32500000D01*
X85750000Y-25000000D02*
X51000000Y-25000000D01*
D28*
X83050000Y-22365000D02*
X85025000Y-22200000D01*
D26*
X51000000Y-31000000D02*
X50900000Y-31060000D01*
X20650000Y-32000000D02*
X20750000Y-32250000D01*
X39500000Y-24500000D02*
X39500000Y-24750000D01*
X36500000Y-24500000D02*
X36500000Y-24750000D01*
X50900000Y-32460000D02*
X50750000Y-32500000D01*
X20750000Y-32250000D02*
X20750000Y-35000000D01*
X48000000Y-32250000D02*
X48000000Y-31750000D01*
D29*
X81500000Y-25350000D02*
X81500000Y-25000000D01*
D26*
X89250000Y-41000000D02*
X89250000Y-29250000D01*
X61000000Y-29250000D02*
X61000000Y-24750000D01*
X85750000Y-23500000D02*
X85675000Y-23800000D01*
X49250000Y-32500000D02*
X48750000Y-32500000D01*
X49500000Y-33250000D02*
X49500000Y-33860000D01*
X51000000Y-30750000D02*
X50900000Y-31060000D01*
X23100000Y-26000000D02*
X20000000Y-26000000D01*
X23000000Y-25750000D02*
X23000000Y-24750000D01*
X50750000Y-33750000D02*
X50250000Y-33750000D01*
X48000000Y-32500000D02*
X48100000Y-32460000D01*
X85750000Y-23500000D02*
X85675000Y-23800000D01*
X86975000Y-23800000D02*
X87000000Y-23500000D01*
X23000000Y-26000000D02*
X23100000Y-26000000D01*
X23000000Y-24750000D02*
X42000000Y-24750000D01*
X48000000Y-33500000D02*
X48000000Y-33250000D01*
X48100000Y-33860000D02*
X48000000Y-33500000D01*
X42000000Y-24750000D02*
X42250000Y-24740000D01*
X89250000Y-52500000D02*
X89250000Y-41000000D01*
X60000000Y-24750000D02*
X59750000Y-24740000D01*
X20750000Y-35000000D02*
X23100000Y-35000000D01*
X51000000Y-31250000D02*
X51000000Y-31750000D01*
X49500000Y-31000000D02*
X49500000Y-31060000D01*
X48000000Y-33250000D02*
X48100000Y-33860000D01*
X49500000Y-31060000D02*
X49500000Y-31750000D01*
X85750000Y-23000000D02*
X85750000Y-23500000D01*
X48000000Y-32500000D02*
X48100000Y-32460000D01*
X51000000Y-32500000D02*
X50900000Y-32460000D01*
X85675000Y-23800000D02*
X85750000Y-24000000D01*
X65000000Y-52540000D02*
X65250000Y-52500000D01*
X83050000Y-22365000D02*
X83250000Y-22250000D01*
X49500000Y-32500000D02*
X49500000Y-32460000D01*
X50900000Y-31060000D02*
X51000000Y-31250000D01*
X50900000Y-33860000D02*
X50750000Y-33750000D01*
D29*
X86450000Y-28000000D02*
X86450000Y-29250000D01*
D26*
X61000000Y-24750000D02*
X60000000Y-24750000D01*
X51000000Y-25000000D02*
X51000000Y-30750000D01*
X51000000Y-32500000D02*
X50900000Y-32460000D01*
X85000000Y-22250000D02*
X85000000Y-23000000D01*
X65250000Y-52500000D02*
X89250000Y-52500000D01*
X49500000Y-32500000D02*
X49500000Y-32460000D01*
X89250000Y-29250000D02*
X61000000Y-29250000D01*
X87000000Y-23500000D02*
X87000000Y-23000000D01*
X49500000Y-33860000D02*
X49500000Y-33250000D01*
%TO.N,/VCC*%
D29*
X81500000Y-23450000D02*
X81500000Y-23800000D01*
D26*
X79500000Y-46000000D02*
X43500000Y-46000000D01*
D29*
X77400000Y-23800000D02*
X85025000Y-23800000D01*
D30*
X77400000Y-20500000D02*
X77050000Y-22365000D01*
D26*
X83500000Y-46000000D02*
X26000000Y-46000000D01*
X83382500Y-41000000D02*
X83500000Y-41250000D01*
D30*
X86325000Y-23800000D02*
X86325000Y-26500000D01*
D26*
X25000000Y-26000000D02*
X42000000Y-26000000D01*
X43500000Y-46000000D02*
X43500000Y-26000000D01*
D29*
X77087500Y-19000000D02*
X77400000Y-23800000D01*
D26*
X83500000Y-41250000D02*
X83382500Y-41000000D01*
X25000000Y-26000000D02*
X24250000Y-26000000D01*
D30*
X81500000Y-23200000D02*
X85025000Y-23800000D01*
D26*
X39500000Y-26400000D02*
X39500000Y-26000000D01*
X36500000Y-26400000D02*
X36500000Y-26000000D01*
D28*
X77400000Y-23800000D02*
X85025000Y-23800000D01*
D26*
X42000000Y-26000000D02*
X42250000Y-26010000D01*
X43500000Y-26000000D02*
X25000000Y-26000000D01*
X26000000Y-46000000D02*
X26000000Y-32000000D01*
X26000000Y-32000000D02*
X24982500Y-32000000D01*
X83500000Y-50000000D02*
X83500000Y-41250000D01*
D28*
X77050000Y-22365000D02*
X77400000Y-23800000D01*
D30*
X85675000Y-20500000D02*
X77400000Y-20500000D01*
D29*
X84550000Y-28000000D02*
X84800000Y-26500000D01*
D30*
X84800000Y-26500000D02*
X82800000Y-26500000D01*
X86325000Y-26500000D02*
X87000000Y-26500000D01*
D26*
X24250000Y-26000000D02*
X24250000Y-27000000D01*
X77050000Y-22365000D02*
X77250000Y-22250000D01*
X24982500Y-32000000D02*
X25000000Y-31750000D01*
D30*
X85675000Y-22200000D02*
X85675000Y-20500000D01*
D26*
X77250000Y-22250000D02*
X77750000Y-22250000D01*
X83500000Y-41250000D02*
X83500000Y-46000000D01*
%TO.N,/controller_enable*%
D29*
X17250000Y-32000000D02*
X17250000Y-30750000D01*
X42000000Y-27250000D02*
X25750000Y-27250000D01*
X23250000Y-32000000D02*
X23157500Y-32000000D01*
X25000000Y-35000000D02*
X24000000Y-35000000D01*
X17250000Y-30750000D02*
X23250000Y-30750000D01*
X24000000Y-35000000D02*
X24000000Y-32000000D01*
X24000000Y-32000000D02*
X23157500Y-32000000D01*
X23250000Y-30750000D02*
X23250000Y-31750000D01*
X23250000Y-31750000D02*
X23157500Y-32000000D01*
X42250000Y-27280000D02*
X42000000Y-27250000D01*
%TO.N,/controller_boot*%
X81500000Y-41250000D02*
X81557500Y-41000000D01*
X59750000Y-41250000D02*
X59750000Y-43500000D01*
X81500000Y-41000000D02*
X81557500Y-41000000D01*
X59750000Y-43500000D02*
X81500000Y-43500000D01*
X85850000Y-41000000D02*
X84500000Y-41000000D01*
X81500000Y-43500000D02*
X81500000Y-41250000D01*
%TO.N,/GPIO*%
X59500000Y-37500000D02*
X59750000Y-37440000D01*
X58500000Y-37500000D02*
X59500000Y-37500000D01*
X58500000Y-44750000D02*
X58500000Y-37500000D01*
%TO.N,/SCK*%
X59500000Y-35000000D02*
X59750000Y-34900000D01*
X58250000Y-35000000D02*
X59500000Y-35000000D01*
%TO.N,/MISO*%
X60000000Y-33750000D02*
X59750000Y-33630000D01*
X61000000Y-39500000D02*
X61000000Y-33750000D01*
X61000000Y-33750000D02*
X60000000Y-33750000D01*
%TO.N,/SDA*%
X88000000Y-18000000D02*
X88000000Y-20500000D01*
X59750000Y-31000000D02*
X59750000Y-31090000D01*
X86325000Y-18000000D02*
X86325000Y-22200000D01*
X88000000Y-18000000D02*
X86325000Y-18000000D01*
X75500000Y-31000000D02*
X59750000Y-31000000D01*
%TO.N,/controller_uart_rx*%
X57500000Y-29750000D02*
X59500000Y-29750000D01*
X64750000Y-55000000D02*
X57500000Y-55000000D01*
X59500000Y-29750000D02*
X59750000Y-29820000D01*
X65000000Y-55080000D02*
X64750000Y-55000000D01*
%TO.N,/controller_uart_tx*%
X59500000Y-28500000D02*
X59750000Y-28550000D01*
X56750000Y-28500000D02*
X59500000Y-28500000D01*
X65000000Y-57620000D02*
X64750000Y-57500000D01*
X64750000Y-57500000D02*
X56750000Y-57500000D01*
%TO.N,/SCL*%
X59000000Y-27250000D02*
X59500000Y-27250000D01*
X87750000Y-35750000D02*
X61750000Y-35750000D01*
X61750000Y-35750000D02*
X61750000Y-37750000D01*
X87750000Y-22500000D02*
X87750000Y-28500000D01*
X87800000Y-22200000D02*
X86975000Y-22200000D01*
X87800000Y-22200000D02*
X87750000Y-22500000D01*
X59500000Y-27250000D02*
X59750000Y-27280000D01*
X61750000Y-34500000D02*
X61750000Y-37750000D01*
%TO.N,/MOSI*%
X59750000Y-26000000D02*
X59750000Y-26010000D01*
%TD*%
M02*
