%TF.GenerationSoftware,KiCad,Pcbnew,10.0.3*%
%TF.CreationDate,2026-09-14T06:45:02-05:00*%
%TF.ProjectId,board,626f6172-642e-46b6-9963-61645f706362,rev?*%
%TF.SameCoordinates,Original*%
%TF.FileFunction,Copper,L2,Bot*%
%TF.FilePolarity,Positive*%
%FSLAX46Y46*%
G04 Gerber Fmt 4.6, Leading zero omitted, Abs format (unit mm)*
G04 Created by KiCad (PCBNEW 10.0.3) date 2026-09-14 06:45:02*
%MOMM*%
%LPD*%
G01*
G04 APERTURE LIST*
%TA.AperFunction,ComponentPad*%
%ADD10C,0.600000*%
%TD*%
%TA.AperFunction,ComponentPad*%
%ADD11R,1.700000X1.700000*%
%TD*%
%TA.AperFunction,ComponentPad*%
%ADD12C,1.700000*%
%TD*%
%TA.AperFunction,ViaPad*%
%ADD13C,0.600000*%
%TD*%
%TA.AperFunction,ViaPad*%
%ADD14C,0.700000*%
%TD*%
%TA.AperFunction,Conductor*%
%ADD15C,0.400000*%
%TD*%
%TA.AperFunction,Conductor*%
%ADD16C,0.500000*%
%TD*%
%TA.AperFunction,Conductor*%
%ADD17C,0.250000*%
%TD*%
G04 APERTURE END LIST*
D10*
%TO.P,U1,39*%
%TO.N,/GND*%
X48100000Y-31760000D03*
X48100000Y-33160000D03*
X48800000Y-31060000D03*
X48800000Y-32460000D03*
X48800000Y-33860000D03*
X49500000Y-31760000D03*
X49500000Y-33160000D03*
X50200000Y-31060000D03*
X50200000Y-32460000D03*
X50200000Y-33860000D03*
X50900000Y-31760000D03*
X50900000Y-33160000D03*
%TD*%
D11*
%TO.P,J1,1*%
%TO.N,/VCC*%
X20000000Y-22500000D03*
D12*
%TO.P,J1,2*%
%TO.N,/GND*%
X20000000Y-25040000D03*
%TD*%
D11*
%TO.P,J3,1*%
%TO.N,/MOSI*%
X78020000Y-32000000D03*
D12*
%TO.P,J3,2*%
%TO.N,/SCL*%
X78020000Y-34540000D03*
%TO.P,J3,3*%
%TO.N,/SDA*%
X78020000Y-37080000D03*
%TO.P,J3,4*%
%TO.N,/MISO*%
X78020000Y-39620000D03*
%TO.P,J3,5*%
%TO.N,/SCK*%
X78020000Y-42160000D03*
%TO.P,J3,6*%
%TO.N,/GPIO*%
X78020000Y-44700000D03*
%TD*%
D11*
%TO.P,J2,1*%
%TO.N,/VCC*%
X65000000Y-50000000D03*
D12*
%TO.P,J2,2*%
%TO.N,/GND*%
X65000000Y-52540000D03*
%TO.P,J2,3*%
%TO.N,/controller_uart_rx*%
X65000000Y-55080000D03*
%TO.P,J2,4*%
%TO.N,/controller_uart_tx*%
X65000000Y-57620000D03*
%TD*%
D13*
%TO.N,/GND*%
X23100000Y-29000000D03*
X82000000Y-22365000D03*
D14*
X51000000Y-32500000D03*
D13*
X59750000Y-24740000D03*
X78950000Y-22365000D03*
X97700000Y-15000000D03*
X42250000Y-24740000D03*
D14*
X23000000Y-26000000D03*
X49500000Y-32500000D03*
X51000000Y-31000000D03*
D13*
X48100000Y-31060000D03*
D14*
X48000000Y-32500000D03*
X49500000Y-31000000D03*
D13*
X45285000Y-42500000D03*
D14*
X20000000Y-26000000D03*
D13*
X23100000Y-35000000D03*
X101800000Y-13300000D03*
%TO.N,/VCC*%
X77087500Y-28000000D03*
D14*
X24250000Y-27000000D03*
D13*
X77050000Y-22365000D03*
X79000000Y-23800000D03*
X103000000Y-18500000D03*
D14*
X79500000Y-46000000D03*
X77750000Y-22250000D03*
X83500000Y-50000000D03*
D13*
%TO.N,/controller_enable*%
X25750000Y-27250000D03*
X23250000Y-32000000D03*
%TO.N,/controller_boot*%
X81500000Y-41000000D03*
X84500000Y-41000000D03*
%TO.N,/GPIO*%
X58500000Y-44750000D03*
%TO.N,/SCK*%
X58250000Y-35000000D03*
%TO.N,/MISO*%
X61000000Y-39500000D03*
%TO.N,/SDA*%
X59750000Y-31000000D03*
X80000000Y-20500000D03*
X75500000Y-31000000D03*
%TO.N,/controller_uart_rx*%
X57500000Y-55000000D03*
X57500000Y-29750000D03*
%TO.N,/controller_uart_tx*%
X56750000Y-28500000D03*
X56750000Y-57500000D03*
%TO.N,/SCL*%
X78912500Y-28000000D03*
X87750000Y-35750000D03*
X61750000Y-37750000D03*
X61750000Y-34500000D03*
X59000000Y-27250000D03*
X80500000Y-28000000D03*
%TO.N,/MOSI*%
X59750000Y-26000000D03*
%TD*%
%TO.N,/GND*%
D15*
X50200000Y-33860000D02*
X50000000Y-33750000D01*
X50900000Y-33160000D02*
X51000000Y-33000000D01*
X50200000Y-31060000D02*
X50500000Y-31000000D01*
X21050000Y-29000000D02*
X21050000Y-35000000D01*
X48000000Y-31750000D02*
X48100000Y-31760000D01*
X23100000Y-29000000D02*
X21050000Y-29000000D01*
X48000000Y-26000000D02*
X23000000Y-26000000D01*
D16*
X45285000Y-42500000D02*
X48100000Y-31060000D01*
D15*
X48100000Y-33160000D02*
X48000000Y-33000000D01*
D16*
X59000000Y-24200000D02*
X51000000Y-24200000D01*
D15*
X51000000Y-31750000D02*
X50900000Y-31760000D01*
X48800000Y-32460000D02*
X48500000Y-32500000D01*
X48800000Y-31060000D02*
X49000000Y-31000000D01*
D16*
X51000000Y-24200000D02*
X48100000Y-31060000D01*
D15*
X50000000Y-33750000D02*
X49500000Y-33250000D01*
D16*
X42250000Y-24740000D02*
X44000000Y-30000000D01*
D15*
X51000000Y-33000000D02*
X51000000Y-32500000D01*
X50250000Y-33750000D02*
X50200000Y-33860000D01*
X50200000Y-32460000D02*
X50000000Y-32500000D01*
D17*
X97700000Y-15000000D02*
X97700000Y-13300000D01*
D16*
X59750000Y-24740000D02*
X59000000Y-24200000D01*
D17*
X82000000Y-13300000D02*
X101800000Y-13300000D01*
D15*
X48000000Y-33250000D02*
X48100000Y-33160000D01*
X20000000Y-26000000D02*
X20000000Y-25040000D01*
X21050000Y-35000000D02*
X23100000Y-35000000D01*
X49000000Y-31000000D02*
X49500000Y-31000000D01*
X50000000Y-32500000D02*
X49500000Y-32500000D01*
X49500000Y-31760000D02*
X49500000Y-32500000D01*
X49500000Y-33250000D02*
X49500000Y-33160000D01*
X48500000Y-32500000D02*
X48000000Y-32500000D01*
X48800000Y-33860000D02*
X48500000Y-33750000D01*
X48750000Y-32500000D02*
X48800000Y-32460000D01*
X50900000Y-31760000D02*
X51000000Y-32000000D01*
X50500000Y-31000000D02*
X51000000Y-31000000D01*
D16*
X44000000Y-30000000D02*
X48100000Y-31060000D01*
D17*
X82000000Y-22365000D02*
X82000000Y-13300000D01*
X78950000Y-22365000D02*
X82000000Y-22365000D01*
D15*
X48000000Y-31500000D02*
X48000000Y-26000000D01*
X49500000Y-33160000D02*
X49500000Y-32500000D01*
X48000000Y-33000000D02*
X48000000Y-32500000D01*
X49500000Y-31750000D02*
X49500000Y-31760000D01*
X50250000Y-32500000D02*
X50200000Y-32460000D01*
X48100000Y-31760000D02*
X48000000Y-31500000D01*
X48500000Y-33750000D02*
X48000000Y-33250000D01*
X51000000Y-32000000D02*
X51000000Y-32500000D01*
%TO.N,/VCC*%
X24250000Y-27000000D02*
X21250000Y-27000000D01*
X79500000Y-30750000D02*
X79500000Y-46000000D01*
X21250000Y-27000000D02*
X21250000Y-22500000D01*
X77750000Y-30750000D02*
X79500000Y-30750000D01*
D17*
X79000000Y-23800000D02*
X103000000Y-23800000D01*
D15*
X65000000Y-50000000D02*
X83500000Y-50000000D01*
X77750000Y-22250000D02*
X77750000Y-30750000D01*
X21250000Y-22500000D02*
X20000000Y-22500000D01*
D17*
X103000000Y-23800000D02*
X103000000Y-18500000D01*
X77087500Y-28000000D02*
X77050000Y-22365000D01*
%TO.N,/controller_enable*%
X25750000Y-27250000D02*
X25750000Y-32000000D01*
X25750000Y-32000000D02*
X23250000Y-32000000D01*
%TO.N,/controller_boot*%
X84500000Y-41000000D02*
X81500000Y-41000000D01*
%TO.N,/GPIO*%
X77750000Y-44750000D02*
X58500000Y-44750000D01*
X78020000Y-44700000D02*
X77750000Y-44750000D01*
%TO.N,/SCK*%
X77750000Y-42250000D02*
X58250000Y-42250000D01*
X78020000Y-42160000D02*
X77750000Y-42250000D01*
X58250000Y-42250000D02*
X58250000Y-35000000D01*
%TO.N,/MISO*%
X77750000Y-39500000D02*
X61000000Y-39500000D01*
X78020000Y-39620000D02*
X77750000Y-39500000D01*
%TO.N,/SDA*%
X59750000Y-37000000D02*
X59750000Y-31000000D01*
X77750000Y-37000000D02*
X59750000Y-37000000D01*
X78020000Y-37080000D02*
X77750000Y-37000000D01*
X75500000Y-20500000D02*
X80000000Y-20500000D01*
X75500000Y-20500000D02*
X75500000Y-31000000D01*
%TO.N,/controller_uart_rx*%
X57500000Y-55000000D02*
X57500000Y-29750000D01*
%TO.N,/controller_uart_tx*%
X56750000Y-57500000D02*
X56750000Y-28500000D01*
%TO.N,/SCL*%
X59000000Y-37750000D02*
X59000000Y-27250000D01*
X61750000Y-37750000D02*
X59000000Y-37750000D01*
X59000000Y-37750000D02*
X59000000Y-27250000D01*
X80500000Y-35750000D02*
X87750000Y-35750000D01*
X77750000Y-34500000D02*
X61750000Y-34500000D01*
X78912500Y-28000000D02*
X80500000Y-28000000D01*
X78020000Y-34540000D02*
X77750000Y-34500000D01*
X61750000Y-37750000D02*
X59000000Y-37750000D01*
X80500000Y-28000000D02*
X80500000Y-35750000D01*
%TO.N,/MOSI*%
X60500000Y-32000000D02*
X60500000Y-26000000D01*
X78020000Y-32000000D02*
X60500000Y-32000000D01*
X60500000Y-26000000D02*
X59750000Y-26000000D01*
%TD*%
M02*
