%TF.GenerationSoftware,KiCad,Pcbnew,10.0.3*%
%TF.CreationDate,2026-09-14T06:42:47-05:00*%
%TF.ProjectId,board,626f6172-642e-46b6-9963-61645f706362,rev?*%
%TF.SameCoordinates,Original*%
%TF.FileFunction,Soldermask,Top*%
%TF.FilePolarity,Negative*%
%FSLAX46Y46*%
G04 Gerber Fmt 4.6, Leading zero omitted, Abs format (unit mm)*
G04 Created by KiCad (PCBNEW 10.0.3) date 2026-09-14 06:42:47*
%MOMM*%
%LPD*%
G01*
G04 APERTURE LIST*
G04 Aperture macros list*
%AMRoundRect*
0 Rectangle with rounded corners*
0 $1 Rounding radius*
0 $2 $3 $4 $5 $6 $7 $8 $9 X,Y pos of 4 corners*
0 Add a 4 corners polygon primitive as box body*
4,1,4,$2,$3,$4,$5,$6,$7,$8,$9,$2,$3,0*
0 Add four circle primitives for the rounded corners*
1,1,$1+$1,$2,$3*
1,1,$1+$1,$4,$5*
1,1,$1+$1,$6,$7*
1,1,$1+$1,$8,$9*
0 Add four rect primitives between the rounded corners*
20,1,$1+$1,$2,$3,$4,$5,0*
20,1,$1+$1,$4,$5,$6,$7,0*
20,1,$1+$1,$6,$7,$8,$9,0*
20,1,$1+$1,$8,$9,$2,$3,0*%
%AMFreePoly0*
4,1,19,0.548209,0.907453,0.573861,0.863024,0.575000,0.850000,0.575000,-0.850000,0.557453,-0.898209,0.513024,-0.923861,0.500000,-0.925000,-0.500000,-0.925000,-0.548209,-0.907453,-0.573861,-0.863024,-0.575000,-0.850000,-0.575000,0.550000,-0.557453,0.598209,-0.553033,0.603033,-0.253033,0.903033,-0.206537,0.924715,-0.200000,0.925000,0.500000,0.925000,0.548209,0.907453,0.548209,0.907453,
$1*%
G04 Aperture macros list end*
%ADD10R,1.500000X0.900000*%
%ADD11R,0.900000X1.500000*%
%ADD12R,0.900000X0.900000*%
%ADD13C,0.600000*%
%ADD14R,1.700000X1.700000*%
%ADD15C,1.700000*%
%ADD16RoundRect,0.250000X-0.250000X-0.475000X0.250000X-0.475000X0.250000X0.475000X-0.250000X0.475000X0*%
%ADD17R,0.900000X1.700000*%
%ADD18RoundRect,0.256250X0.256250X0.443750X-0.256250X0.443750X-0.256250X-0.443750X0.256250X-0.443750X0*%
%ADD19FreePoly0,0.000000*%
%ADD20RoundRect,0.250000X0.475000X-0.250000X0.475000X0.250000X-0.475000X0.250000X-0.475000X-0.250000X0*%
%ADD21RoundRect,0.256250X-0.256250X-0.443750X0.256250X-0.443750X0.256250X0.443750X-0.256250X0.443750X0*%
%ADD22RoundRect,0.250000X0.250000X0.475000X-0.250000X0.475000X-0.250000X-0.475000X0.250000X-0.475000X0*%
G04 APERTURE END LIST*
%TO.C,U2*%
G36*
X98475000Y-14050000D02*
G01*
X99175000Y-14050000D01*
X99175000Y-15950000D01*
X98475000Y-15950000D01*
X98475000Y-14050000D01*
G37*
G36*
X100825000Y-14050000D02*
G01*
X101525000Y-14050000D01*
X101525000Y-15950000D01*
X100825000Y-15950000D01*
X100825000Y-14050000D01*
G37*
%TD*%
D10*
%TO.C,U1*%
X42250000Y-24740000D03*
X42250000Y-26010000D03*
X42250000Y-27280000D03*
X42250000Y-28550000D03*
X42250000Y-29820000D03*
X42250000Y-31090000D03*
X42250000Y-32360000D03*
X42250000Y-33630000D03*
X42250000Y-34900000D03*
X42250000Y-36170000D03*
X42250000Y-37440000D03*
X42250000Y-38710000D03*
X42250000Y-39980000D03*
X42250000Y-41250000D03*
D11*
X45285000Y-42500000D03*
X46555000Y-42500000D03*
X47825000Y-42500000D03*
X49095000Y-42500000D03*
X50365000Y-42500000D03*
X51635000Y-42500000D03*
X52905000Y-42500000D03*
X54175000Y-42500000D03*
X55445000Y-42500000D03*
X56715000Y-42500000D03*
D10*
X59750000Y-41250000D03*
X59750000Y-39980000D03*
X59750000Y-38710000D03*
X59750000Y-37440000D03*
X59750000Y-36170000D03*
X59750000Y-34900000D03*
X59750000Y-33630000D03*
X59750000Y-32360000D03*
X59750000Y-31090000D03*
X59750000Y-29820000D03*
X59750000Y-28550000D03*
X59750000Y-27280000D03*
X59750000Y-26010000D03*
X59750000Y-24740000D03*
D12*
X48100000Y-31060000D03*
D13*
X48100000Y-31760000D03*
D12*
X48100000Y-32460000D03*
D13*
X48100000Y-33160000D03*
D12*
X48100000Y-33860000D03*
D13*
X48800000Y-31060000D03*
X48800000Y-32460000D03*
X48800000Y-33860000D03*
D12*
X49500000Y-31060000D03*
D13*
X49500000Y-31760000D03*
D12*
X49500000Y-32460000D03*
D13*
X49500000Y-33160000D03*
D12*
X49500000Y-33860000D03*
D13*
X50200000Y-31060000D03*
X50200000Y-32460000D03*
X50200000Y-33860000D03*
D12*
X50900000Y-31060000D03*
D13*
X50900000Y-31760000D03*
D12*
X50900000Y-32460000D03*
D13*
X50900000Y-33160000D03*
D12*
X50900000Y-33860000D03*
%TD*%
D14*
%TO.C,J1*%
X20000000Y-22500000D03*
D15*
X20000000Y-25040000D03*
%TD*%
D16*
%TO.C,C5*%
X102925000Y-16500000D03*
X104825000Y-16500000D03*
%TD*%
%TO.C,C4*%
X77050000Y-22365000D03*
X78950000Y-22365000D03*
%TD*%
D17*
%TO.C,SW1*%
X17250000Y-32000000D03*
X20650000Y-32000000D03*
%TD*%
D18*
%TO.C,R1*%
X24982500Y-32000000D03*
X23157500Y-32000000D03*
%TD*%
D19*
%TO.C,U2*%
X100000000Y-15000000D03*
%TD*%
D18*
%TO.C,R2*%
X83382500Y-41000000D03*
X81557500Y-41000000D03*
%TD*%
D20*
%TO.C,C1*%
X39500000Y-26400000D03*
X39500000Y-24500000D03*
%TD*%
D21*
%TO.C,R3*%
X77087500Y-19000000D03*
X78912500Y-19000000D03*
%TD*%
D14*
%TO.C,J3*%
X78020000Y-32000000D03*
D15*
X78020000Y-34540000D03*
X78020000Y-37080000D03*
X78020000Y-39620000D03*
X78020000Y-42160000D03*
X78020000Y-44700000D03*
%TD*%
D22*
%TO.C,C3*%
X25000000Y-35000000D03*
X23100000Y-35000000D03*
%TD*%
D20*
%TO.C,C2*%
X36500000Y-26400000D03*
X36500000Y-24500000D03*
%TD*%
D17*
%TO.C,SW2*%
X85850000Y-41000000D03*
X89250000Y-41000000D03*
%TD*%
D14*
%TO.C,J2*%
X65000000Y-50000000D03*
D15*
X65000000Y-52540000D03*
X65000000Y-55080000D03*
X65000000Y-57620000D03*
%TD*%
D21*
%TO.C,R4*%
X77087500Y-28000000D03*
X78912500Y-28000000D03*
%TD*%
M02*
